# xmcd
#
# Track frame offsets:
# 150
# 15731
# 35283
# 55585
# 74572
# 92121
# 113423
# 129847
# 144366
#
# Disc length: 2187 seconds
#
#
# Revision: 0
# Processed by: cddbd v1.5.1PL0 Copyright (c) Steve Scherf et al.
# Submitted via: FreeRIP 2.90 
#
DISCID=6c088909
DTITLE=BB POQI - B B POQI
DYEAR=0025
DGENRE=Rock and Roll
TTITLE0=MOs thuaj jo
TTITLE1=Kthehu
TTITLE2=une jam i tille
TTITLE3=Kerkova
TTITLE4=Mos harro
TTITLE5=Nuk ka me..
TTITLE6=Qyteti
TTITLE7=Dua te jesh me mua
TTITLE8=ME fale
EXTD=
EXTT0=
EXTT1=
EXTT2=
EXTT3=
EXTT4=
EXTT5=
EXTT6=
EXTT7=
EXTT8=
PLAYORDER=
